<svg width="48" height="48" viewBox="0 0 48 48" fill="none" xmlns="http://www.w3.org/2000/svg">
<circle cx="24" cy="24" r="23.5" fill="#F5F5F5" stroke="#D9D9D9"/>
<path d="M34.8286 31.8625C34.2391 30.4662 33.3837 29.1978 32.3099 28.1281C31.2394 27.0553 29.9712 26.2 28.5755 25.6094C28.563 25.6031 28.5505 25.6 28.538 25.5938C30.4849 24.1875 31.7505 21.8969 31.7505 19.3125C31.7505 15.0312 28.2818 11.5625 24.0005 11.5625C19.7193 11.5625 16.2505 15.0312 16.2505 19.3125C16.2505 21.8969 17.5161 24.1875 19.463 25.5969C19.4505 25.6031 19.438 25.6062 19.4255 25.6125C18.0255 26.2031 16.7693 27.05 15.6911 28.1313C14.6184 29.2018 13.763 30.4699 13.1724 31.8656C12.5922 33.232 12.2792 34.697 12.2505 36.1812C12.2497 36.2146 12.2555 36.2478 12.2677 36.2788C12.2799 36.3099 12.2982 36.3382 12.3215 36.3621C12.3448 36.386 12.3726 36.4049 12.4034 36.4179C12.4341 36.4308 12.4672 36.4375 12.5005 36.4375H14.3755C14.513 36.4375 14.6224 36.3281 14.6255 36.1938C14.688 33.7812 15.6568 31.5219 17.3693 29.8094C19.1411 28.0375 21.4943 27.0625 24.0005 27.0625C26.5068 27.0625 28.8599 28.0375 30.6318 29.8094C32.3443 31.5219 33.313 33.7812 33.3755 36.1938C33.3786 36.3313 33.488 36.4375 33.6255 36.4375H35.5005C35.5339 36.4375 35.5669 36.4308 35.5977 36.4179C35.6284 36.4049 35.6562 36.386 35.6795 36.3621C35.7028 36.3382 35.7211 36.3099 35.7333 36.2788C35.7455 36.2478 35.7514 36.2146 35.7505 36.1812C35.7193 34.6875 35.4099 33.2344 34.8286 31.8625ZM24.0005 24.6875C22.5661 24.6875 21.2161 24.1281 20.2005 23.1125C19.1849 22.0969 18.6255 20.7469 18.6255 19.3125C18.6255 17.8781 19.1849 16.5281 20.2005 15.5125C21.2161 14.4969 22.5661 13.9375 24.0005 13.9375C25.4349 13.9375 26.7849 14.4969 27.8005 15.5125C28.8161 16.5281 29.3755 17.8781 29.3755 19.3125C29.3755 20.7469 28.8161 22.0969 27.8005 23.1125C26.7849 24.1281 25.4349 24.6875 24.0005 24.6875Z" fill="white"/>
<path d="M25.5938 26.4688V30.8047H23.3965V26.4688H19.3438V24.3008H23.3965V20.0332H25.5938V24.3008H29.6562V26.4688H25.5938Z" fill="#1890FF"/>
</svg>
